HIERARCHY
ROOT Hips
{
	OFFSET 207.810501 92.148010 50.517139
	CHANNELS 6 Xposition Yposition Zposition Zrotation Yrotation Xrotation 
	JOINT LeftUpLeg
	{
		OFFSET 0.103462 1.857827 10.548504
		CHANNELS 3 Zrotation Yrotation Xrotation
		JOINT LeftLeg
		{
			OFFSET 43.500000 -0.000031 0.000000
			CHANNELS 3 Zrotation Yrotation Xrotation
			JOINT LeftFoot
			{
				OFFSET 42.372192 0.000015 0.000000
				CHANNELS 3 Zrotation Yrotation Xrotation
				JOINT LeftToe
				{
					OFFSET 17.300001 0.000000 -0.000009
					CHANNELS 3 Zrotation Yrotation Xrotation
					End Site
					{
						OFFSET 0.000000 0.000000 0.000000
					}
				}
			}
		}
	}
	JOINT RightUpLeg
	{
		OFFSET 0.103456 1.857828 -10.548508
		CHANNELS 3 Zrotation Yrotation Xrotation
		JOINT RightLeg
		{
			OFFSET 43.500046 -0.000015 0.000008
			CHANNELS 3 Zrotation Yrotation Xrotation
			JOINT RightFoot
			{
				OFFSET 42.372261 -0.000015 0.000002
				CHANNELS 3 Zrotation Yrotation Xrotation
				JOINT RightToe
				{
					OFFSET 17.299999 -0.000003 0.000011
					CHANNELS 3 Zrotation Yrotation Xrotation
					End Site
					{
						OFFSET 0.000000 0.000000 0.000000
					}
				}
			}
		}
	}
	JOINT Spine
	{
		OFFSET 6.901966 -2.603728 -0.000009
		CHANNELS 3 Zrotation Yrotation Xrotation
		JOINT Spine1
		{
			OFFSET 12.588099 0.000000 0.000013
			CHANNELS 3 Zrotation Yrotation Xrotation
			JOINT Spine2
			{
				OFFSET 12.343203 0.000005 -0.000004
				CHANNELS 3 Zrotation Yrotation Xrotation
				JOINT Neck
				{
					OFFSET 25.832897 -0.000004 0.000004
					CHANNELS 3 Zrotation Yrotation Xrotation
					JOINT Head
					{
						OFFSET 11.766615 0.000003 -0.000003
						CHANNELS 3 Zrotation Yrotation Xrotation
						End Site
						{
							OFFSET 0.000000 0.000000 0.000000
						}
					}
				}
				JOINT LeftShoulder
				{
					OFFSET 19.745903 -1.480370 6.000102
					CHANNELS 3 Zrotation Yrotation Xrotation
					JOINT LeftArm
					{
						OFFSET 11.284127 -0.000006 -0.000019
						CHANNELS 3 Zrotation Yrotation Xrotation
						JOINT LeftForeArm
						{
							OFFSET 33.000042 0.000001 0.000035
							CHANNELS 3 Zrotation Yrotation Xrotation
							JOINT LeftHand
							{
								OFFSET 25.200005 0.000015 0.000003
								CHANNELS 3 Zrotation Yrotation Xrotation
								End Site
								{
									OFFSET 0.000000 0.000000 0.000000
								}
							}
						}
					}
				}
				JOINT RightShoulder
				{
					OFFSET 19.746101 -1.480375 -6.000084
					CHANNELS 3 Zrotation Yrotation Xrotation
					JOINT RightArm
					{
						OFFSET 11.284132 -0.000016 -0.000012
						CHANNELS 3 Zrotation Yrotation Xrotation
						JOINT RightForeArm
						{
							OFFSET 33.000092 0.000018 0.000010
							CHANNELS 3 Zrotation Yrotation Xrotation
							JOINT RightHand
							{
								OFFSET 25.199774 0.000137 0.000425
								CHANNELS 3 Zrotation Yrotation Xrotation
								End Site
								{
									OFFSET 0.000000 0.000000 0.000000
								}
							}
						}
					}
				}
			}
		}
	}
}
MOTION
Frames: 8
Frame Time: 0.033333
207.810501 92.148010 50.517139 89.478074 5.381547 85.576383 -176.065051 -6.104905 -179.289064 -11.096649 -2.031460 -6.409022 73.207866 2.732345 -6.355470 21.454553 0.003102 0.000000 -174.155863 5.468700 -176.912322 -9.878164 2.942317 11.484117 75.458311 -6.050491 8.188085 21.454560 -0.003120 -0.000020 6.873530 -0.031127 0.066918 3.723429 -0.030010 0.129711 3.405339 -0.029104 0.129909 5.568692 0.102868 -3.810227 -16.867080 4.737166 -5.664799 -64.435103 -87.033836 -117.600148 -2.420990 7.958624 -9.560638 -21.529607 -15.811342 1.161218 10.388501 2.557292 20.806582 -93.806774 81.447397 88.637161 -6.770651 -4.979217 5.687396 -20.059900 16.402102 -1.183363 9.199851 -6.421323 -14.178429 
207.807495 92.147797 50.521931 89.478080 5.377402 85.581792 -176.068002 -6.104905 -179.289064 -11.096654 -2.031464 -6.409023 73.207866 2.732345 -6.355459 21.454553 0.003092 0.000001 -174.155877 5.468702 -176.909044 -9.884593 2.942322 11.484117 75.463932 -6.050496 8.188080 21.454560 -0.003115 -0.000018 6.873527 -0.031131 0.066921 3.723433 -0.030014 0.129704 3.405344 -0.029103 0.129902 5.592699 0.123066 -3.798707 -16.874624 4.728530 -5.647710 -64.485011 -87.033767 -117.550233 -2.429274 7.954474 -9.578452 -21.529610 -15.811343 1.161213 10.363202 2.563541 20.815282 -93.809998 81.443469 88.634320 -6.779243 -4.984007 5.699244 -20.052196 16.393221 -1.183373 9.197947 -6.410171 -14.163723 
207.799606 92.147430 50.533409 89.478080 5.366636 85.597283 -176.075774 -6.104899 -179.289064 -11.096646 -2.031459 -6.404780 73.207873 2.732355 -6.355475 21.454555 0.003087 0.000000 -174.155863 5.468707 -176.900711 -9.899208 2.942312 11.488476 75.477183 -6.050498 8.188089 21.454558 -0.003118 -0.000018 6.873534 -0.031132 0.066921 3.723432 -0.030010 0.129707 3.405339 -0.029113 0.129895 5.654804 0.180798 -3.766598 -16.902287 4.703004 -5.599681 -64.593809 -87.033767 -117.441414 -2.450454 7.943771 -9.622248 -21.524168 -15.811342 1.161216 10.292263 2.582409 20.833353 -93.822491 81.433586 88.622606 -6.801122 -4.995845 5.731336 -20.032569 16.366981 -1.183353 9.184502 -6.378154 -14.130080 
207.791397 92.147171 50.546841 89.478080 5.357479 85.616011 -176.079681 -6.104905 -179.289064 -11.096654 -2.031466 -6.398681 73.207866 2.727665 -6.355471 21.454555 0.003089 0.000002 -174.155863 5.468705 -176.891272 -9.907989 2.942317 11.494380 75.489259 -6.054846 8.188079 21.454557 -0.003126 -0.000018 6.873528 -0.031126 0.066929 3.723435 -0.030017 0.129704 3.405336 -0.029110 0.129895 5.719548 0.254559 -3.733320 -16.938222 4.665000 -5.544356 -64.605701 -87.033836 -117.429544 -2.469593 7.935847 -9.658854 -21.515101 -15.811342 1.161224 10.239499 2.595078 20.843876 -93.857564 81.424666 88.588086 -6.821091 -5.006520 5.765509 -20.018120 16.339131 -1.183364 9.188648 -6.341361 -14.114819 
207.783600 92.146912 50.562870 89.478080 5.349378 85.631106 -176.078889 -6.104904 -179.295198 -11.096646 -2.027374 -6.388187 73.207866 2.720009 -6.355473 21.454551 0.003088 -0.000000 -174.155877 5.468710 -176.887556 -9.913778 2.942323 11.501519 75.501164 -6.060132 8.190067 21.454558 -0.003107 -0.000017 6.873527 -0.031134 0.066925 3.723428 -0.030010 0.129704 3.405342 -0.029103 0.129902 5.787971 0.342668 -3.701784 -16.976956 4.612172 -5.483853 -64.503350 -87.033836 -117.532010 -2.486375 7.932744 -9.682835 -21.503022 -15.816980 1.161222 10.215390 2.599078 20.828645 -93.914029 81.417959 88.531853 -6.837257 -5.016729 5.800624 -20.006784 16.314800 -1.183364 9.197910 -6.305011 -14.130216 
207.776093 92.146423 50.581329 89.478074 5.343209 85.639869 -176.074190 -6.104903 -179.318940 -11.096645 -2.020416 -6.371185 73.212033 2.708039 -6.355467 21.454550 0.003088 0.000001 -174.150576 5.468702 -176.891886 -9.918509 2.946997 11.509681 75.513431 -6.066125 8.192236 21.454557 -0.003115 -0.000019 6.873532 -0.031127 0.066918 3.723429 -0.030017 0.129714 3.405346 -0.029103 0.129902 5.859786 0.429391 -3.674388 -17.012184 4.550917 -5.424674 -64.366794 -87.033836 -117.668532 -2.500754 7.930725 -9.702215 -21.490873 -15.824848 1.161228 10.204200 2.588443 20.786347 -93.963691 81.413731 88.482232 -6.849722 -5.028133 5.836736 -19.999719 16.298831 -1.183360 9.211364 -6.277739 -14.184299 
207.768799 92.145691 50.601391 89.478080 5.338518 85.645982 -176.067879 -6.106791 -179.344758 -11.096650 -2.013884 -6.354378 73.219143 2.696373 -6.355473 21.454553 0.003081 -0.000001 -174.143432 5.468702 -176.900178 -9.923421 2.952780 11.518476 75.526586 -6.072632 8.194459 21.454558 -0.003103 -0.000016 6.873513 -0.031132 0.066918 3.723440 -0.030017 0.129707 3.405334 -0.029107 0.129902 5.939788 0.513070 -3.655621 -17.048087 4.474538 -5.369512 -64.221298 -87.033767 -117.813646 -2.512488 7.927154 -9.724108 -21.481476 -15.832899 1.161230 10.204790 2.567296 20.721209 -94.013428 81.412788 88.432290 -6.858395 -5.039418 5.874495 -19.998360 16.296109 -1.183366 9.228922 -6.285474 -14.253926 
207.761795 92.144691 50.622780 89.478080 5.334817 85.650326 -176.061008 -6.109299 -179.363691 -11.102565 -2.010007 -6.342385 73.229231 2.688126 -6.355468 21.454550 0.003082 -0.000001 -174.135290 5.468702 -176.911339 -9.929357 2.959395 11.527829 75.541018 -6.079520 8.196808 21.454560 -0.003096 -0.000018 6.873522 -0.031135 0.066911 3.723446 -0.030010 0.129707 3.405332 -0.029114 0.129902 6.016505 0.583886 -3.643635 -17.054443 4.404185 -5.323789 -64.085029 -87.033767 -117.949567 -2.521325 7.921651 -9.748726 -21.476849 -15.847420 1.161213 10.220940 2.576378 20.679661 -94.063965 81.414414 88.381186 -6.862592 -5.050032 5.912643 -20.003047 16.304954 -1.183349 9.248411 -6.324262 -14.327317 
